<svg width="393" height="852" viewBox="0 0 393 852" fill="none" xmlns="http://www.w3.org/2000/svg">
<g clip-path="url(#clip0_238_8234)">
<path d="M303.766 212.684C303.834 213.098 303.944 213.67 304.107 214.295C304.433 215.541 304.977 217.02 305.854 217.896C306.73 218.773 308.209 219.317 309.455 219.643C310.08 219.806 310.652 219.916 311.066 219.984C311.102 219.99 311.137 219.995 311.171 220C311.137 220.005 311.102 220.01 311.066 220.016C310.652 220.084 310.08 220.194 309.455 220.357C308.209 220.683 306.73 221.227 305.854 222.104C304.977 222.98 304.433 224.459 304.107 225.705C303.944 226.33 303.834 226.902 303.766 227.316C303.76 227.352 303.755 227.387 303.75 227.421C303.745 227.387 303.74 227.352 303.734 227.316C303.666 226.902 303.556 226.33 303.393 225.705C303.067 224.459 302.523 222.98 301.646 222.104C300.77 221.227 299.291 220.683 298.045 220.357C297.42 220.194 296.848 220.084 296.434 220.016C296.397 220.01 296.362 220.005 296.328 220C296.362 219.995 296.397 219.99 296.434 219.984C296.848 219.916 297.42 219.806 298.045 219.643C299.291 219.317 300.77 218.773 301.646 217.896C302.523 217.02 303.067 215.541 303.393 214.295C303.556 213.67 303.666 213.098 303.734 212.684C303.74 212.647 303.745 212.612 303.75 212.578C303.755 212.612 303.76 212.647 303.766 212.684Z" fill="white" stroke="white" stroke-width="0.162083"/>
<path d="M71.0234 604.025C71.1262 604.648 71.291 605.505 71.5361 606.443C72.0247 608.313 72.8412 610.531 74.1553 611.845C75.4694 613.159 77.687 613.975 79.5566 614.464C80.4948 614.709 81.3523 614.874 81.9746 614.977C82.0284 614.985 82.0807 614.992 82.1309 615C82.0807 615.008 82.0284 615.015 81.9746 615.023C81.3523 615.126 80.4948 615.291 79.5566 615.536C77.687 616.025 75.4694 616.841 74.1553 618.155C72.8412 619.469 72.0247 621.687 71.5361 623.557C71.291 624.495 71.1262 625.352 71.0234 625.975C71.0146 626.028 71.008 626.081 71 626.131C70.992 626.081 70.9854 626.028 70.9766 625.975C70.8738 625.352 70.709 624.495 70.4639 623.557C69.9753 621.687 69.1588 619.469 67.8447 618.155C66.5306 616.841 64.313 616.025 62.4434 615.536C61.5052 615.291 60.6477 615.126 60.0254 615.023C59.9713 615.015 59.9186 615.008 59.8682 615C59.9186 614.992 59.9713 614.985 60.0254 614.977C60.6477 614.874 61.5052 614.709 62.4434 614.464C64.313 613.975 66.5306 613.159 67.8447 611.845C69.1588 610.531 69.9753 608.313 70.4639 606.443C70.709 605.505 70.8738 604.648 70.9766 604.025C70.9855 603.971 70.992 603.919 71 603.868C71.008 603.919 71.0145 603.971 71.0234 604.025Z" fill="white" stroke="white" stroke-width="0.243125"/>
<path d="M57.7979 168.052C58.0035 169.296 58.3312 171.01 58.8213 172.886C59.7983 176.625 61.4321 181.061 64.0605 183.689C66.6889 186.318 71.1248 187.952 74.8643 188.929C76.7402 189.419 78.4537 189.747 79.6982 189.952C79.803 189.969 79.905 189.984 80.0029 190C79.905 190.016 79.803 190.031 79.6982 190.048C78.4537 190.253 76.7402 190.581 74.8643 191.071C71.1248 192.048 66.6889 193.682 64.0605 196.311C61.4321 198.939 59.7983 203.375 58.8213 207.114C58.3312 208.99 58.0035 210.704 57.7979 211.948C57.7805 212.053 57.7656 212.155 57.75 212.253C57.7344 212.155 57.7195 212.053 57.7021 211.948C57.4965 210.704 57.1688 208.99 56.6787 207.114C55.7017 203.375 54.0679 198.939 51.4395 196.311C48.8111 193.682 44.3752 192.048 40.6357 191.071C38.7598 190.581 37.0463 190.253 35.8018 190.048C35.6967 190.03 35.5943 190.016 35.4961 190C35.5943 189.984 35.6967 189.97 35.8018 189.952C37.0463 189.747 38.7598 189.419 40.6357 188.929C44.3752 187.952 48.8111 186.318 51.4395 183.689C54.0679 181.061 55.7017 176.625 56.6787 172.886C57.1688 171.01 57.4965 169.296 57.7021 168.052C57.7195 167.947 57.7344 167.844 57.75 167.746C57.7656 167.844 57.7805 167.947 57.7979 168.052Z" fill="white" stroke="white" stroke-width="0.486249"/>
<path d="M672.69 851.949C404.359 851.949 268.331 711.949 0 711.949" stroke="white" stroke-width="3" stroke-dasharray="3 3"/>
</g>
<defs>
<clipPath id="clip0_238_8234">
<rect width="393" height="852" fill="white"/>
</clipPath>
</defs>
</svg>
