<svg width="24" height="24" viewBox="0 0 24 24" fill="none" xmlns="http://www.w3.org/2000/svg">
<path d="M19.2498 11.9993C19.2498 11.1504 19.0056 10.3671 18.5916 9.72198L18.4031 9.4544L18.3602 9.39092C18.1613 9.06696 18.236 8.6382 18.5447 8.40264C18.8535 8.16717 19.2868 8.20828 19.5467 8.48565L19.5965 8.54424L19.7283 8.72491C20.3722 9.64375 20.7498 10.7778 20.7498 11.9993C20.7498 13.3021 20.3204 14.5056 19.5965 15.4544C19.3453 15.7837 18.874 15.8472 18.5447 15.596C18.2155 15.3448 18.152 14.8735 18.4031 14.5442C18.93 13.8538 19.2498 12.9696 19.2498 11.9993Z" fill="#141414"/>
<path d="M15.25 9.18603C15.25 7.58885 15.2484 6.47285 15.1416 5.70165C15.0301 4.89639 14.8443 4.79335 14.7822 4.76708C14.7276 4.74405 14.5371 4.67826 13.9053 5.16356C13.2976 5.63034 12.5246 6.41636 11.418 7.54638C10.8296 8.14716 10.3015 8.58456 9.65919 8.85009C9.01877 9.11475 8.33756 9.17821 7.50587 9.17821C6.7883 9.17821 6.30753 9.17925 5.94142 9.21728C5.58877 9.25393 5.42674 9.31881 5.31935 9.39208C5.02897 9.59032 4.8737 9.88956 4.80079 10.3511C4.72175 10.8516 4.7588 11.372 4.7588 11.9995C4.7588 12.627 4.72175 13.1474 4.80079 13.6479C4.8737 14.1094 5.02897 14.4087 5.31935 14.6069C5.42674 14.6802 5.58877 14.7451 5.94142 14.7817C6.30753 14.8198 6.7883 14.8208 7.50587 14.8208C8.33756 14.8208 9.01877 14.8843 9.65919 15.1489C10.3015 15.4144 10.8296 15.8518 11.418 16.4526C12.5246 17.5826 13.2976 18.3687 13.9053 18.8354C14.5371 19.3207 14.7276 19.255 14.7822 19.2319C14.8443 19.2057 15.0301 19.1026 15.1416 18.2974C15.2484 17.5261 15.25 16.4102 15.25 14.813V9.18603ZM16.75 14.813C16.75 16.3609 16.7515 17.6042 16.627 18.5034C16.5071 19.3684 16.23 20.2476 15.3672 20.6128C14.496 20.9813 13.6781 20.5534 12.9912 20.0259C12.2786 19.4785 11.4179 18.5963 10.3467 17.5024C9.80745 16.9518 9.44936 16.6856 9.08693 16.5356C8.72251 16.385 8.27882 16.3208 7.50587 16.3208C6.82039 16.3208 6.24861 16.3218 5.78712 16.2739C5.31217 16.2246 4.87032 16.1168 4.47364 15.8462C3.71813 15.3305 3.42892 14.5752 3.31935 13.8813C3.21595 13.2262 3.2588 12.4899 3.2588 11.9995C3.2588 11.5091 3.21595 10.7728 3.31935 10.1177C3.42892 9.42382 3.71813 8.66849 4.47364 8.15282C4.87032 7.88218 5.31217 7.77442 5.78712 7.72509C6.24861 7.67719 6.82039 7.67821 7.50587 7.67821C8.27882 7.67821 8.72251 7.61402 9.08693 7.46337C9.44936 7.31344 9.80746 7.04718 10.3467 6.49657C11.4179 5.40273 12.2786 4.5205 12.9912 3.97313C13.6781 3.44557 14.496 3.01773 15.3672 3.38622C16.23 3.75138 16.5071 4.63061 16.627 5.4956C16.7515 6.39483 16.75 7.63807 16.75 9.18603V14.813Z" fill="#141414"/>
</svg>
