<svg width="393" height="852" viewBox="0 0 393 852" fill="none" xmlns="http://www.w3.org/2000/svg">
<g clip-path="url(#clip0_238_8259)">
<path fill-rule="evenodd" clip-rule="evenodd" d="M90.5976 614.501L91.8047 612.399C91.3294 612.126 90.854 611.853 90.3786 611.579C90.1491 611.446 89.9197 611.314 89.6902 611.182C88.9853 610.775 88.2813 610.367 87.5782 609.959L86.3616 612.055C87.0662 612.464 87.7718 612.873 88.4783 613.281C89.1847 613.689 89.8911 614.095 90.5976 614.501ZM82.1438 609.595L83.37 607.504C81.9708 606.683 80.5752 605.861 79.1831 605.036L77.9474 607.121C79.3426 607.948 80.7414 608.772 82.1438 609.595ZM73.7724 604.634C72.3844 603.803 70.9999 602.969 69.619 602.134L70.8736 600.06C72.2513 600.894 73.6326 601.725 75.0176 602.554L73.7724 604.634ZM65.4636 599.607L66.7277 597.539C65.3398 596.691 63.9556 595.84 62.5752 594.988L61.3016 597.05C62.6852 597.905 64.0725 598.757 65.4636 599.607ZM57.1622 594.481L58.4452 592.424C57.0724 591.568 55.7033 590.709 54.338 589.848L53.0455 591.899C54.4139 592.761 55.7861 593.622 57.1622 594.481ZM48.9517 589.305L50.2537 587.261C48.8875 586.39 47.5252 585.518 46.1667 584.644L44.8553 586.683C46.2169 587.559 47.5823 588.433 48.9517 589.305ZM40.7527 584.029L42.0737 581.997C40.7133 581.113 39.357 580.227 38.0046 579.338L36.6741 581.364C38.0296 582.255 39.3891 583.143 40.7527 584.029ZM32.6197 578.688L33.9598 576.668C32.6155 575.776 31.2753 574.882 29.9392 573.987L28.5896 576C29.9289 576.898 31.2722 577.794 32.6197 578.688ZM24.5522 573.28L25.9114 571.273C24.5641 570.36 23.221 569.446 21.8822 568.53L20.5134 570.53C21.8555 571.449 23.2017 572.365 24.5522 573.28ZM16.5001 567.77L17.8785 565.776C16.5482 564.856 15.2222 563.935 13.9005 563.012L12.5126 564.999C13.8375 565.924 15.1667 566.848 16.5001 567.77ZM8.55093 562.217L9.94843 560.237C8.62115 559.3 7.29827 558.362 5.97985 557.422L4.57265 559.395C5.89427 560.338 7.2204 561.278 8.55093 562.217ZM0.602587 556.55L2.01949 554.583C0.703886 553.635 -0.607161 552.686 -1.91367 551.735L-3.34023 553.694C-2.0305 554.648 -0.716239 555.6 0.602587 556.55ZM-7.2557 550.829L-5.81941 548.876C-7.11676 547.922 -8.4095 546.966 -9.6976 546.008L-11.1435 547.954C-9.8522 548.914 -8.55626 549.872 -7.2557 550.829ZM-15.0628 545.025L-13.607 543.087C-14.9071 542.11 -16.2023 541.132 -17.4928 540.153L-18.9584 542.083C-17.6647 543.065 -16.3662 544.046 -15.0628 545.025ZM-22.8248 539.132L-21.3494 537.209C-22.6301 536.227 -23.9059 535.242 -25.1768 534.257L-26.662 536.172C-25.3879 537.16 -24.1088 538.147 -22.8248 539.132ZM-30.4851 533.192L-28.9899 531.284C-30.2735 530.278 -31.5518 529.271 -32.8251 528.262L-34.3302 530.162C-33.0537 531.174 -31.7719 532.184 -30.4851 533.192ZM-38.1445 527.124C-39.4107 526.11 -40.6718 525.095 -41.9276 524.078L-40.4025 522.194C-39.15 523.208 -37.8923 524.221 -36.6293 525.232L-38.1445 527.124ZM-45.6795 521.024L-44.1444 519.148C-45.401 518.12 -46.6521 517.09 -47.8978 516.059L-49.4431 517.927C-48.194 518.96 -46.9394 519.993 -45.6795 521.024ZM-53.2012 514.799L-51.6458 512.941C-52.8896 511.9 -54.128 510.858 -55.3607 509.815L-56.9264 511.665C-55.6902 512.711 -54.4485 513.756 -53.2012 514.799ZM-60.6182 508.524L-59.0423 506.682C-60.266 505.635 -61.4841 504.587 -62.6966 503.537L-64.2827 505.37C-63.0668 506.422 -61.8453 507.473 -60.6182 508.524ZM-67.9802 502.152C-69.2068 501.078 -70.4276 500.003 -71.6424 498.927L-70.0354 497.113C-68.8241 498.185 -67.6068 499.257 -66.3837 500.328L-67.9802 502.152ZM-75.2691 495.697L-73.6517 493.891C-74.8511 492.817 -76.0446 491.741 -77.2321 490.664L-78.86 492.46C-77.669 493.54 -76.472 494.619 -75.2691 495.697ZM-82.4643 489.173L-80.8257 487.387C-82.0263 486.286 -83.2206 485.184 -84.4086 484.08L-86.0579 485.857C-84.8663 486.963 -83.6684 488.069 -82.4643 489.173ZM-89.6134 482.535L-87.9534 480.769C-89.1287 479.664 -90.2975 478.559 -91.46 477.452L-93.1308 479.208C-91.9647 480.318 -90.7922 481.427 -89.6134 482.535ZM-96.6337 475.854C-97.8131 474.718 -98.9859 473.581 -100.152 472.443L-98.4591 470.709C-97.2968 471.843 -96.1278 472.976 -94.952 474.109L-96.6337 475.854ZM-103.629 469.029L-101.925 467.305C-103.074 466.169 -104.216 465.034 -105.351 463.897L-107.066 465.61C-105.927 466.75 -104.781 467.89 -103.629 469.029ZM-110.465 462.184L-108.739 460.482C-109.887 459.318 -111.028 458.152 -112.162 456.987L-113.9 458.677C-112.762 459.846 -111.617 461.015 -110.465 462.184ZM-117.29 455.167L-115.541 453.489C-116.66 452.322 -117.772 451.155 -118.876 449.989L-120.637 451.654C-119.529 452.826 -118.413 453.996 -117.29 455.167ZM-123.939 448.141L-122.167 446.487C-123.282 445.292 -124.389 444.097 -125.489 442.902L-127.272 444.543C-126.169 445.742 -125.058 446.942 -123.939 448.141ZM-130.566 440.936L-128.77 439.308C-129.856 438.11 -130.934 436.912 -132.005 435.714L-133.812 437.329C-132.738 438.531 -131.656 439.734 -130.566 440.936ZM-137.011 433.721L-135.191 432.12C-136.27 430.893 -137.341 429.667 -138.403 428.441L-140.235 430.028C-139.169 431.259 -138.094 432.49 -137.011 433.721ZM-143.419 426.323L-141.575 424.75C-142.624 423.52 -143.664 422.29 -144.696 421.061L-146.552 422.618C-145.517 423.853 -144.472 425.088 -143.419 426.323ZM-149.634 418.916C-150.68 417.649 -151.716 416.382 -152.744 415.115L-150.862 413.588C-149.838 414.849 -148.806 416.111 -147.764 417.373L-149.634 418.916ZM-155.804 411.311C-156.815 410.043 -157.817 408.775 -158.809 407.509L-156.901 406.014C-155.913 407.275 -154.916 408.537 -153.909 409.8L-155.804 411.311ZM-161.767 403.698L-159.846 402.22C-160.845 400.922 -161.833 399.625 -162.812 398.328L-164.746 399.788C-163.763 401.091 -162.77 402.394 -161.767 403.698ZM-167.665 395.883L-165.717 394.441C-166.675 393.146 -167.624 391.853 -168.562 390.56L-170.523 391.983C-169.581 393.282 -168.628 394.582 -167.665 395.883ZM-173.355 388.04L-171.38 386.636C-172.327 385.304 -173.262 383.973 -174.187 382.644L-176.177 384.028C-175.247 385.364 -174.307 386.702 -173.355 388.04ZM-178.932 380.024L-176.929 378.66C-177.831 377.333 -178.723 376.008 -179.604 374.684L-181.622 376.027C-180.736 377.358 -179.84 378.69 -178.932 380.024ZM-184.314 371.932L-182.281 370.612C-183.168 369.247 -184.042 367.883 -184.905 366.522L-186.952 367.819C-186.085 369.188 -185.205 370.559 -184.314 371.932ZM-189.519 363.717L-187.456 362.443C-188.304 361.071 -189.14 359.7 -189.963 358.331L-192.04 359.58C-191.212 360.957 -190.371 362.336 -189.519 363.717ZM-194.544 355.357L-192.451 354.134C-193.267 352.737 -194.071 351.343 -194.861 349.951L-196.969 351.147C-196.174 352.548 -195.365 353.952 -194.544 355.357ZM-199.315 346.951L-197.191 345.782C-197.982 344.347 -198.758 342.914 -199.519 341.484L-201.658 342.624C-200.891 344.063 -200.11 345.506 -199.315 346.951ZM-203.92 338.305L-201.765 337.196C-202.499 335.77 -203.219 334.347 -203.924 332.926L-206.095 334.004C-205.384 335.435 -204.659 336.869 -203.92 338.305ZM-208.237 329.606L-206.05 328.561C-206.751 327.094 -207.436 325.631 -208.105 324.171L-210.308 325.181C-209.634 326.652 -208.943 328.127 -208.237 329.606ZM-212.284 320.776L-210.065 319.802C-210.716 318.317 -211.352 316.835 -211.97 315.358L-214.206 316.294C-213.582 317.784 -212.941 319.278 -212.284 320.776ZM-216.054 311.765L-213.802 310.869C-214.395 309.377 -214.971 307.89 -215.53 306.407L-217.798 307.262C-217.234 308.758 -216.653 310.26 -216.054 311.765ZM-219.472 302.683L-217.188 301.873C-217.731 300.341 -218.255 298.815 -218.759 297.294L-221.06 298.058C-220.55 299.594 -220.02 301.136 -219.472 302.683ZM-222.532 293.464L-220.216 292.749C-220.694 291.198 -221.153 289.653 -221.591 288.114L-223.922 288.778C-223.479 290.334 -223.016 291.896 -222.532 293.464ZM-225.204 284.069L-222.858 283.46C-223.259 281.915 -223.639 280.377 -223.997 278.845L-226.357 279.398C-225.994 280.949 -225.609 282.506 -225.204 284.069ZM-227.416 274.601L-225.043 274.109C-225.369 272.532 -225.673 270.962 -225.953 269.4L-228.339 269.828C-228.055 271.412 -227.747 273.003 -227.416 274.601ZM-229.127 265.06L-226.73 264.698C-226.972 263.093 -227.189 261.497 -227.38 259.909L-229.787 260.2C-229.592 261.811 -229.372 263.431 -229.127 265.06ZM-230.292 255.39L-227.878 255.174C-228.022 253.569 -228.139 251.973 -228.229 250.387L-230.649 250.525C-230.557 252.137 -230.438 253.759 -230.292 255.39ZM-230.842 245.657L-228.419 245.602C-228.455 244.009 -228.463 242.427 -228.443 240.856L-230.867 240.825C-230.887 242.425 -230.879 244.036 -230.842 245.657ZM-230.713 235.93L-228.292 236.052C-228.212 234.462 -228.102 232.883 -227.962 231.317L-230.376 231.101C-230.519 232.699 -230.631 234.309 -230.713 235.93ZM-229.844 226.251L-227.44 226.565C-227.234 224.984 -226.995 223.415 -226.725 221.859L-229.113 221.444C-229.389 223.034 -229.633 224.637 -229.844 226.251ZM-228.179 216.68L-225.811 217.199C-225.47 215.642 -225.096 214.098 -224.688 212.569L-227.03 211.944C-227.447 213.509 -227.83 215.088 -228.179 216.68ZM-225.672 207.289L-223.362 208.021C-222.882 206.506 -222.368 205.006 -221.819 203.52L-224.092 202.68C-224.654 204.201 -225.181 205.738 -225.672 207.289ZM-222.297 198.161L-220.067 199.11C-219.449 197.656 -218.795 196.216 -218.107 194.793L-220.289 193.738C-220.994 195.197 -221.664 196.671 -222.297 198.161ZM-218.063 189.409L-215.935 190.569C-215.556 189.873 -215.168 189.181 -214.77 188.493C-214.373 187.804 -213.967 187.122 -213.554 186.445L-215.623 185.182C-216.047 185.876 -216.462 186.575 -216.869 187.281C-217.276 187.986 -217.675 188.695 -218.063 189.409ZM-212.987 181.091L-210.982 182.453C-210.093 181.144 -209.174 179.859 -208.224 178.597L-210.16 177.139C-211.134 178.433 -212.076 179.75 -212.987 181.091ZM-207.144 173.326L-205.28 174.874C-204.268 173.656 -203.226 172.461 -202.154 171.288L-203.943 169.653C-205.041 170.854 -206.108 172.078 -207.144 173.326ZM-200.59 166.15L-198.878 167.865C-197.758 166.747 -196.608 165.652 -195.43 164.578L-197.063 162.786C-198.268 163.885 -199.444 165.006 -200.59 166.15ZM-193.404 159.595L-191.851 161.456C-190.639 160.444 -189.4 159.453 -188.133 158.484L-189.607 156.559C-190.9 157.549 -192.166 158.561 -193.404 159.595ZM-185.673 153.673L-184.279 155.656C-182.992 154.751 -181.68 153.867 -180.344 153.003L-181.66 150.967C-183.022 151.848 -184.36 152.75 -185.673 153.673ZM-177.497 148.386L-176.259 150.47C-174.908 149.666 -173.534 148.882 -172.136 148.117L-173.3 145.991C-174.722 146.77 -176.121 147.568 -177.497 148.386ZM-168.988 143.725L-167.897 145.89C-166.478 145.175 -165.038 144.478 -163.576 143.8L-164.596 141.601C-166.081 142.29 -167.546 142.998 -168.988 143.725ZM-160.178 139.634L-159.226 141.863C-157.756 141.235 -156.265 140.625 -154.754 140.032L-155.64 137.776C-157.172 138.377 -158.685 138.997 -160.178 139.634ZM-151.116 136.074L-150.294 138.354C-148.801 137.816 -147.29 137.294 -145.76 136.788L-146.521 134.487C-148.071 134.999 -149.602 135.528 -151.116 136.074ZM-141.837 133.005L-141.136 135.325C-139.63 134.87 -138.108 134.43 -136.57 134.005L-137.215 131.669C-138.772 132.099 -140.313 132.544 -141.837 133.005ZM-132.497 130.424L-131.906 132.775C-130.354 132.385 -128.787 132.009 -127.205 131.649L-127.743 129.285C-129.343 129.65 -130.928 130.03 -132.497 130.424ZM-123.029 128.263L-122.54 130.637C-120.97 130.314 -119.387 130.004 -117.789 129.709L-118.23 127.326C-119.843 127.624 -121.443 127.936 -123.029 128.263ZM-113.427 126.486L-113.033 128.877C-111.469 128.62 -109.894 128.375 -108.305 128.143L-108.655 125.744C-110.258 125.978 -111.849 126.226 -113.427 126.486ZM-103.809 125.081L-103.501 127.485C-101.913 127.282 -100.312 127.091 -98.7 126.913L-98.9663 124.504C-100.592 124.684 -102.206 124.876 -103.809 125.081ZM-94.1641 124.013L-93.9369 126.426C-92.3381 126.275 -90.7281 126.137 -89.1071 126.01L-89.296 123.594C-90.9295 123.721 -92.5523 123.861 -94.1641 124.013ZM-84.4157 123.25L-84.2637 125.669C-82.6812 125.569 -81.0888 125.481 -79.4865 125.404L-79.6035 122.983C-81.2173 123.061 -82.8214 123.15 -84.4157 123.25ZM-74.733 122.782L-74.6503 125.204C-73.0311 125.149 -71.4023 125.105 -69.7641 125.071L-69.8134 122.648C-71.4627 122.682 -73.1026 122.726 -74.733 122.782ZM-65.0065 122.582L-64.9886 125.005C-63.3881 124.994 -61.7788 124.992 -60.161 125.001L-60.1481 122.577C-61.7761 122.568 -63.3956 122.57 -65.0065 122.582ZM-55.2391 122.634L-55.2821 125.057C-53.6852 125.086 -52.0804 125.124 -50.4676 125.171L-50.3957 122.749C-52.018 122.701 -53.6325 122.662 -55.2391 122.634ZM-45.5598 122.92L-45.6595 125.342C-44.0492 125.408 -42.4313 125.484 -40.806 125.569L-40.6789 123.149C-42.3133 123.063 -43.9403 122.987 -45.5598 122.92ZM-35.7865 123.433L-35.9401 125.852C-34.3534 125.952 -32.7598 126.062 -31.1595 126.181L-30.9805 123.763C-32.5892 123.644 -34.1912 123.534 -35.7865 123.433ZM-26.1346 124.148L-26.3385 126.563C-24.7248 126.699 -23.1046 126.844 -21.4779 126.998L-21.2496 124.585C-22.8843 124.43 -24.5127 124.284 -26.1346 124.148ZM-16.4186 125.066L-16.6705 127.477C-15.0819 127.643 -13.4874 127.817 -11.8869 127.999L-11.6122 125.591C-13.2202 125.408 -14.8223 125.233 -16.4186 125.066ZM-6.77102 126.167L-7.06818 128.572C-5.45613 128.771 -3.83831 128.979 -2.21484 129.194L-1.89562 126.792C-3.52638 126.575 -5.15155 126.367 -6.77102 126.167ZM2.88386 127.448L2.54351 129.848C4.12972 130.073 5.72116 130.306 7.31772 130.546L7.67879 128.149C6.07538 127.908 4.47704 127.674 2.88386 127.448ZM12.5042 128.897L12.1227 131.291C13.7264 131.547 15.3351 131.81 16.9487 132.081L17.3503 129.691C15.73 129.419 14.1146 129.154 12.5042 128.897ZM22.0977 130.508L21.6769 132.895C23.2576 133.174 24.8428 133.459 26.4325 133.753L26.8722 131.369C25.2762 131.075 23.6847 130.788 22.0977 130.508ZM31.6733 132.274L31.2149 134.654C32.8079 134.961 34.4052 135.275 36.0067 135.597L36.4835 133.22C34.8758 132.898 33.2724 132.582 31.6733 132.274ZM41.2071 134.186L40.7127 136.559C42.2853 136.887 43.862 137.221 45.4425 137.563L45.9544 135.194C44.3681 134.851 42.7856 134.515 41.2071 134.186ZM50.7248 136.243L50.1957 138.608C51.7803 138.962 53.3688 139.324 54.961 139.692L55.5071 137.331C53.9093 136.961 52.3152 136.598 50.7248 136.243ZM60.2013 138.433L59.6388 140.791C61.2016 141.164 62.7679 141.543 64.3375 141.929L64.9162 139.576C63.3412 139.188 61.7695 138.808 60.2013 138.433ZM69.6512 140.757L69.0565 143.107C70.6328 143.506 72.2124 143.911 73.7953 144.323L74.4059 141.978C72.8178 141.564 71.2328 141.157 69.6512 140.757ZM79.073 143.209L78.4471 145.55C79.9986 145.965 81.5531 146.386 83.1105 146.813L83.7516 144.476C82.1891 144.047 80.6295 143.625 79.073 143.209ZM88.4476 145.78L87.7916 148.113C89.3549 148.552 90.921 148.998 92.4899 149.45L93.1607 147.121C91.5869 146.667 90.0158 146.22 88.4476 145.78ZM97.8167 148.477L97.1315 150.802C98.6707 151.256 100.212 151.716 101.757 152.181L102.456 149.86C100.907 149.393 99.3606 148.932 97.8167 148.477ZM107.111 151.279L106.397 153.595C107.946 154.072 109.498 154.555 111.052 155.044L111.78 152.732C110.221 152.242 108.665 151.757 107.111 151.279ZM116.429 154.21L115.687 156.518C117.213 157.008 118.742 157.504 120.272 158.005L121.027 155.702C119.492 155.199 117.959 154.702 116.429 154.21ZM125.638 157.227L124.87 159.526C126.405 160.039 127.942 160.557 129.481 161.081L130.262 158.787C128.718 158.261 127.177 157.742 125.638 157.227ZM134.897 160.38L134.103 162.67C135.618 163.195 137.135 163.726 138.654 164.262L139.461 161.977C137.938 161.439 136.417 160.907 134.897 160.38ZM144.027 163.603L143.208 165.884C144.727 166.43 146.249 166.982 147.772 167.538L148.604 165.262C147.077 164.704 145.551 164.151 144.027 163.603ZM153.192 166.953L152.347 169.225C153.863 169.788 155.38 170.357 156.899 170.931L157.756 168.664C156.233 168.088 154.711 167.518 153.192 166.953ZM162.276 170.386L161.407 172.649C162.912 173.226 164.418 173.809 165.925 174.397L166.806 172.139C165.295 171.549 163.785 170.965 162.276 170.386ZM171.344 173.923L170.452 176.177C171.962 176.775 173.473 177.378 174.986 177.987L175.891 175.738C174.374 175.128 172.858 174.523 171.344 173.923ZM180.383 177.559L179.467 179.803C180.956 180.411 182.446 181.024 183.938 181.641L184.865 179.402C183.37 178.783 181.876 178.168 180.383 177.559ZM189.354 181.275L188.415 183.51C189.909 184.137 191.403 184.77 192.899 185.408L193.85 183.178C192.35 182.539 190.851 181.904 189.354 181.275ZM198.346 185.108L197.384 187.333C198.857 187.969 200.331 188.611 201.807 189.257L202.779 187.037C201.3 186.389 199.822 185.746 198.346 185.108ZM207.219 188.995L206.235 191.211C207.712 191.866 209.19 192.527 210.668 193.192L211.663 190.982C210.181 190.315 208.699 189.653 207.219 188.995ZM216.113 192.998L215.107 195.203C216.58 195.875 218.054 196.551 219.529 197.232L220.546 195.032C219.067 194.349 217.589 193.671 216.113 192.998ZM224.935 197.072L223.908 199.267C225.369 199.951 226.83 200.638 228.291 201.33L229.329 199.14C227.864 198.446 226.399 197.757 224.935 197.072ZM233.726 201.235L232.678 203.421C234.141 204.122 235.604 204.828 237.068 205.539L238.127 203.358C236.659 202.646 235.192 201.938 233.726 201.235ZM242.501 205.494L241.432 207.67C242.876 208.379 244.32 209.093 245.765 209.811L246.844 207.641C245.396 206.921 243.948 206.205 242.501 205.494ZM251.189 209.814L250.1 211.979C251.545 212.706 252.991 213.438 254.437 214.174L255.536 212.013C254.087 211.276 252.638 210.543 251.189 209.814ZM259.885 214.24L258.776 216.395C260.212 217.134 261.648 217.878 263.085 218.626L264.205 216.476C262.765 215.726 261.325 214.981 259.885 214.24ZM268.498 218.725L267.368 220.869C268.796 221.621 270.225 222.378 271.653 223.138L272.792 220.999C271.361 220.236 269.929 219.478 268.498 218.725ZM277.087 223.299L275.938 225.433C277.367 226.202 278.795 226.976 280.224 227.754L281.383 225.625C279.951 224.845 278.519 224.07 277.087 223.299ZM285.649 227.96L284.48 230.084C285.891 230.86 287.301 231.641 288.712 232.425L289.89 230.307C288.476 229.521 287.063 228.738 285.649 227.96ZM294.131 232.679L292.944 234.792C294.354 235.585 295.764 236.382 297.175 237.184L298.372 235.077C296.959 234.273 295.545 233.474 294.131 232.679ZM302.612 237.499C303.319 237.905 304.025 238.311 304.731 238.719C305.438 239.127 306.143 239.536 306.848 239.945L305.632 242.041C304.928 241.633 304.224 241.225 303.519 240.818C302.815 240.411 302.11 240.006 301.405 239.601L302.612 237.499ZM311.066 242.405L309.84 244.496C311.239 245.317 312.635 246.139 314.027 246.964L315.262 244.879C313.867 244.052 312.468 243.228 311.066 242.405ZM319.437 247.366L318.192 249.446C319.577 250.275 320.958 251.106 322.336 251.94L323.591 249.866C322.21 249.031 320.825 248.197 319.437 247.366ZM327.746 252.393C329.137 253.243 330.524 254.095 331.908 254.95L330.635 257.012C329.254 256.159 327.87 255.309 326.482 254.461L327.746 252.393ZM336.048 257.519L334.764 259.576C336.137 260.432 337.506 261.291 338.872 262.152L340.164 260.101C338.796 259.239 337.424 258.378 336.048 257.519ZM344.258 262.695L342.956 264.739C344.322 265.61 345.685 266.482 347.043 267.356L348.354 265.317C346.993 264.441 345.627 263.567 344.258 262.695ZM352.457 267.971L351.136 270.003C352.496 270.887 353.853 271.773 355.205 272.662L356.536 270.636C355.18 269.745 353.821 268.857 352.457 267.971ZM360.59 273.312L359.25 275.332C360.594 276.224 361.934 277.118 363.271 278.013L364.62 276C363.281 275.102 361.937 274.206 360.59 273.312ZM368.657 278.72L367.298 280.727C368.646 281.64 369.989 282.554 371.328 283.47L372.696 281.47C371.354 280.551 370.008 279.635 368.657 278.72ZM376.71 284.23C378.043 285.152 379.372 286.076 380.697 287.001L379.309 288.988C377.987 288.065 376.661 287.143 375.331 286.224L376.71 284.23ZM384.659 289.783L383.261 291.763C384.589 292.7 385.911 293.638 387.23 294.578L388.637 292.605C387.315 291.662 385.989 290.722 384.659 289.783ZM392.607 295.45L391.19 297.417C392.506 298.365 393.817 299.314 395.123 300.265L396.55 298.306C395.24 297.352 393.926 296.4 392.607 295.45ZM400.465 301.171L399.029 303.124C400.326 304.078 401.619 305.034 402.907 305.992L404.353 304.046C403.062 303.086 401.766 302.128 400.465 301.171ZM408.273 306.975L406.817 308.913C408.117 309.89 409.412 310.868 410.702 311.847L412.168 309.917C410.874 308.935 409.576 307.954 408.273 306.975ZM416.034 312.868L414.559 314.791C415.84 315.773 417.116 316.758 418.386 317.743L419.872 315.828C418.598 314.84 417.318 313.853 416.034 312.868ZM423.695 318.808C424.982 319.816 426.263 320.826 427.54 321.838L426.035 323.738C424.762 322.729 423.483 321.722 422.2 320.716L423.695 318.808ZM431.354 324.876L429.839 326.768C431.102 327.779 432.36 328.792 433.612 329.806L435.137 327.922C433.881 326.905 432.62 325.89 431.354 324.876ZM438.889 330.976L437.354 332.852C438.611 333.88 439.862 334.91 441.108 335.941L442.653 334.073C441.404 333.04 440.149 332.007 438.889 330.976ZM446.411 337.201L444.856 339.059C446.099 340.1 447.338 341.142 448.57 342.185L450.136 340.335C448.9 339.289 447.658 338.244 446.411 337.201ZM453.828 343.476L452.252 345.318C453.476 346.365 454.694 347.413 455.906 348.463L457.492 346.63C456.276 345.578 455.055 344.526 453.828 343.476ZM461.19 349.848L459.593 351.672C460.817 352.743 462.034 353.814 463.245 354.887L464.852 353.073C463.637 351.997 462.417 350.922 461.19 349.848ZM468.479 356.303L466.861 358.109C468.061 359.183 469.254 360.259 470.442 361.335L472.07 359.54C470.879 358.46 469.682 357.381 468.479 356.303ZM475.674 362.827L474.035 364.613C475.236 365.714 476.43 366.816 477.618 367.92L479.268 366.143C478.076 365.037 476.878 363.931 475.674 362.827ZM482.823 369.465L481.163 371.231C482.338 372.336 483.507 373.441 484.67 374.548L486.34 372.792C485.174 371.682 484.002 370.573 482.823 369.465ZM489.843 376.146L488.162 377.891C489.337 379.024 490.507 380.157 491.669 381.291L493.361 379.557C492.196 378.419 491.023 377.282 489.843 376.146ZM496.839 382.972L495.135 384.695C496.284 385.831 497.425 386.966 498.56 388.103L500.275 386.39C499.137 385.25 497.991 384.11 496.839 382.972ZM503.675 389.816L501.949 391.518C503.097 392.682 504.238 393.848 505.372 395.013L507.109 393.323C505.972 392.154 504.827 390.985 503.675 389.816ZM510.5 396.833L508.751 398.511C509.87 399.678 510.982 400.845 512.086 402.011L513.847 400.346C512.738 399.174 511.623 398.004 510.5 396.833ZM517.149 403.859L515.377 405.513C516.492 406.708 517.599 407.903 518.698 409.098L520.482 407.457C519.379 406.258 518.268 405.058 517.149 403.859ZM523.776 411.064L521.98 412.692C523.066 413.89 524.144 415.088 525.214 416.286L527.022 414.671C525.948 413.469 524.866 412.266 523.776 411.064ZM530.22 418.279L528.401 419.88C529.48 421.107 530.55 422.333 531.612 423.559L533.444 421.972C532.378 420.741 531.303 419.51 530.22 418.279ZM536.629 425.677L534.785 427.25C535.833 428.48 536.874 429.71 537.905 430.939L539.762 429.382C538.726 428.147 537.682 426.912 536.629 425.677ZM542.843 433.084L540.974 434.627C542.016 435.889 543.048 437.151 544.071 438.412L545.953 436.885C544.926 435.618 543.889 434.351 542.843 433.084ZM549.014 440.689L547.119 442.2C548.125 443.463 549.123 444.725 550.111 445.986L552.019 444.491C551.026 443.225 550.025 441.957 549.014 440.689ZM554.977 448.302L553.056 449.78C554.054 451.078 555.043 452.375 556.021 453.672L557.956 452.212C556.973 450.909 555.98 449.606 554.977 448.302ZM560.875 456.117L558.927 457.559C559.885 458.854 560.833 460.147 561.771 461.44L563.733 460.017C562.79 458.718 561.838 457.418 560.875 456.117ZM566.565 463.96L564.59 465.364C565.536 466.696 566.472 468.027 567.397 469.356L569.386 467.972C568.457 466.636 567.516 465.298 566.565 463.96ZM572.142 471.976L570.138 473.34C571.041 474.667 571.933 475.992 572.813 477.316L574.831 475.973C573.946 474.642 573.05 473.31 572.142 471.976ZM577.523 480.068L575.491 481.388C576.377 482.753 577.252 484.117 578.114 485.478L580.162 484.181C579.294 482.812 578.415 481.441 577.523 480.068ZM582.728 488.283L580.666 489.557C581.514 490.929 582.349 492.3 583.172 493.669L585.25 492.42C584.422 491.043 583.581 489.664 582.728 488.283ZM587.753 496.643L585.661 497.866C586.477 499.263 587.28 500.657 588.07 502.049L590.178 500.853C589.383 499.452 588.575 498.048 587.753 496.643ZM592.524 505.049L590.401 506.218C591.191 507.653 591.967 509.086 592.729 510.516L594.868 509.376C594.101 507.937 593.32 506.494 592.524 505.049ZM597.13 513.695L594.975 514.804C595.709 516.23 596.428 517.653 597.133 519.074L599.304 517.996C598.594 516.565 597.869 515.131 597.13 513.695ZM601.447 522.394L599.26 523.439C599.96 524.906 600.645 526.369 601.315 527.829L603.518 526.819C602.843 525.348 602.153 523.872 601.447 522.394ZM605.494 531.224C606.151 532.722 606.792 534.216 607.415 535.706L605.18 536.642C604.561 535.165 603.926 533.683 603.274 532.198L605.494 531.224ZM609.264 540.235L607.012 541.131C607.605 542.623 608.181 544.11 608.739 545.592L611.008 544.738C610.444 543.242 609.863 541.74 609.264 540.235ZM612.682 549.317L610.397 550.127C610.94 551.659 611.464 553.185 611.969 554.706L614.269 553.942C613.759 552.406 613.23 550.864 612.682 549.317ZM615.741 558.536L613.425 559.251C613.904 560.802 614.363 562.347 614.801 563.886L617.132 563.222C616.689 561.666 616.225 560.104 615.741 558.536ZM618.413 567.931L616.067 568.54C616.468 570.085 616.848 571.623 617.207 573.155L619.567 572.602C619.204 571.051 618.819 569.494 618.413 567.931ZM620.626 577.399L618.252 577.891C618.579 579.468 618.883 581.038 619.163 582.6L621.549 582.172C621.264 580.588 620.957 578.997 620.626 577.399ZM622.336 586.94L619.94 587.302C620.182 588.907 620.399 590.503 620.59 592.091L622.996 591.8C622.802 590.189 622.582 588.569 622.336 586.94ZM623.502 596.61L621.088 596.826C621.231 598.431 621.348 600.027 621.438 601.613L623.858 601.475C623.767 599.863 623.648 598.241 623.502 596.61ZM624.052 606.343L621.629 606.398C621.665 607.991 621.673 609.573 621.653 611.144L624.076 611.175C624.097 609.575 624.089 607.964 624.052 606.343ZM623.922 616.07L621.502 615.948C621.422 617.538 621.312 619.117 621.172 620.683L623.586 620.899C623.729 619.301 623.841 617.691 623.922 616.07ZM623.053 625.749L620.65 625.435C620.443 627.016 620.205 628.585 619.935 630.141L622.323 630.556C622.599 628.966 622.842 627.363 623.053 625.749ZM621.388 635.32L619.021 634.801C618.68 636.358 618.305 637.902 617.897 639.431L620.239 640.056C620.657 638.491 621.04 636.912 621.388 635.32ZM618.882 644.711L616.572 643.979C616.092 645.494 615.577 646.994 615.028 648.48L617.302 649.32C617.864 647.799 618.391 646.262 618.882 644.711ZM615.507 653.839L613.277 652.89C612.658 654.344 612.005 655.784 611.316 657.207L613.498 658.262C614.204 656.803 614.874 655.329 615.507 653.839ZM611.273 662.591L609.145 661.431C608.766 662.127 608.377 662.819 607.98 663.507C607.582 664.196 607.177 664.878 606.764 665.555L608.833 666.818C609.256 666.124 609.672 665.425 610.079 664.719C610.486 664.014 610.884 663.305 611.273 662.591ZM606.197 670.909L604.192 669.547C603.303 670.856 602.384 672.141 601.433 673.403L603.37 674.861C604.344 673.567 605.286 672.25 606.197 670.909ZM600.354 678.674L598.489 677.126C597.478 678.344 596.436 679.539 595.364 680.712L597.153 682.347C598.25 681.146 599.318 679.922 600.354 678.674ZM593.8 685.85L592.088 684.135C590.967 685.253 589.818 686.348 588.64 687.422L590.273 689.214C591.477 688.115 592.653 686.994 593.8 685.85ZM586.614 692.405L585.061 690.544C583.849 691.556 582.609 692.547 581.343 693.516L582.816 695.441C584.109 694.451 585.375 693.439 586.614 692.405ZM578.882 698.327L577.488 696.344C576.202 697.249 574.89 698.133 573.553 698.997L574.869 701.033C576.232 700.152 577.57 699.25 578.882 698.327ZM570.707 703.614L569.468 701.53C568.117 702.334 566.743 703.118 565.346 703.883L566.51 706.009C567.932 705.23 569.331 704.432 570.707 703.614ZM562.198 708.275L561.107 706.11C559.688 706.825 558.248 707.522 556.786 708.2L557.806 710.399C559.291 709.71 560.755 709.002 562.198 708.275ZM553.388 712.366L552.436 710.137C550.966 710.765 549.475 711.375 547.964 711.968L548.849 714.224C550.382 713.623 551.895 713.003 553.388 712.366ZM544.325 715.926L543.503 713.646C542.011 714.184 540.499 714.706 538.97 715.212L539.731 717.513C541.28 717.001 542.812 716.472 544.325 715.926ZM535.047 718.995L534.346 716.675C532.84 717.13 531.318 717.57 529.779 717.995L530.425 720.331C531.982 719.901 533.522 719.456 535.047 718.995ZM525.707 721.576L525.115 719.225C523.564 719.615 521.997 719.991 520.414 720.351L520.953 722.715C522.553 722.35 524.137 721.97 525.707 721.576ZM516.238 723.737L515.749 721.363C514.18 721.686 512.596 721.996 510.999 722.291L511.439 724.674C513.053 724.376 514.653 724.064 516.238 723.737ZM506.637 725.514L506.242 723.123C504.679 723.38 503.103 723.625 501.515 723.857L501.865 726.256C503.468 726.022 505.059 725.774 506.637 725.514ZM497.018 726.919L496.711 724.515C495.123 724.718 493.522 724.909 491.91 725.087L492.176 727.496C493.802 727.316 495.416 727.124 497.018 726.919ZM487.374 727.987C485.762 728.139 484.139 728.279 482.506 728.406L482.317 725.99C483.938 725.863 485.548 725.725 487.147 725.574L487.374 727.987ZM477.625 728.75L477.473 726.331C475.891 726.431 474.298 726.519 472.696 726.596L472.813 729.017C474.427 728.939 476.031 728.85 477.625 728.75ZM467.943 729.218L467.86 726.796C466.241 726.851 464.612 726.895 462.974 726.929L463.023 729.352C464.672 729.318 466.312 729.274 467.943 729.218ZM458.216 729.418L458.198 726.995C456.598 727.006 454.988 727.008 453.371 726.999L453.358 729.423C454.986 729.432 456.605 729.43 458.216 729.418ZM448.449 729.366L448.492 726.943C446.895 726.914 445.29 726.876 443.677 726.828L443.605 729.251C445.228 729.299 446.842 729.338 448.449 729.366ZM438.769 729.08C437.15 729.013 435.523 728.937 433.889 728.851L434.016 726.431C435.641 726.516 437.259 726.592 438.869 726.658L438.769 729.08ZM428.996 728.567L429.15 726.148C427.563 726.048 425.969 725.938 424.369 725.819L424.19 728.237C425.799 728.356 427.401 728.466 428.996 728.567ZM419.344 727.852L419.548 725.437C417.935 725.301 416.314 725.156 414.688 725.002L414.459 727.415C416.094 727.57 417.722 727.716 419.344 727.852ZM409.628 726.934L409.88 724.523C408.292 724.357 406.697 724.183 405.097 724L404.822 726.409C406.43 726.592 408.032 726.767 409.628 726.934ZM399.981 725.833L400.278 723.428C398.666 723.229 397.048 723.021 395.425 722.806L395.105 725.208C396.736 725.425 398.361 725.633 399.981 725.833ZM390.326 724.552L390.666 722.152C389.08 721.927 387.489 721.694 385.892 721.454L385.531 723.851C387.134 724.092 388.733 724.326 390.326 724.552ZM380.706 723.102L381.087 720.709C379.483 720.453 377.875 720.19 376.261 719.919L375.859 722.309C377.48 722.581 379.095 722.846 380.706 723.102ZM371.112 721.492L371.533 719.105C369.952 718.826 368.367 718.541 366.777 718.247L366.338 720.631C367.933 720.925 369.525 721.212 371.112 721.492ZM361.536 719.726L361.995 717.346C360.402 717.039 358.805 716.725 357.203 716.403L356.726 718.78C358.334 719.102 359.937 719.418 361.536 719.726ZM352.003 717.814C350.424 717.485 348.842 717.149 347.255 716.806L347.767 714.437C349.348 714.779 350.924 715.113 352.497 715.441L352.003 717.814ZM342.485 715.757L343.014 713.392C341.429 713.038 339.841 712.676 338.249 712.308L337.703 714.669C339.3 715.039 340.895 715.402 342.485 715.757ZM333.008 713.567L333.571 711.209C332.008 710.836 330.442 710.457 328.872 710.071L328.293 712.424C329.868 712.812 331.44 713.192 333.008 713.567ZM323.558 711.243C321.977 710.843 320.392 710.436 318.804 710.022L319.414 707.677C320.997 708.089 322.577 708.494 324.153 708.893L323.558 711.243ZM314.137 708.791L314.763 706.45C313.211 706.035 311.657 705.614 310.099 705.187L309.458 707.525C311.021 707.953 312.58 708.375 314.137 708.791ZM304.762 706.22L305.418 703.887C303.855 703.448 302.289 703.002 300.72 702.55L300.049 704.879C301.623 705.333 303.194 705.78 304.762 706.22ZM295.393 703.523L296.078 701.198C294.539 700.744 292.997 700.284 291.453 699.819L290.754 702.14C292.303 702.607 293.849 703.067 295.393 703.523ZM286.099 700.721L286.813 698.405C285.263 697.928 283.711 697.445 282.157 696.956L281.43 699.268C282.989 699.758 284.545 700.243 286.099 700.721ZM276.781 697.79L277.522 695.482C275.996 694.992 274.468 694.496 272.938 693.995L272.183 696.298C273.718 696.801 275.251 697.298 276.781 697.79ZM267.572 694.773C266.033 694.258 264.491 693.739 262.948 693.213L263.729 690.919C265.268 691.443 266.805 691.961 268.34 692.474L267.572 694.773ZM258.312 691.62L259.106 689.33C257.591 688.805 256.075 688.274 254.556 687.738L253.749 690.023C255.272 690.561 256.793 691.093 258.312 691.62ZM249.183 688.397L250.002 686.116C248.482 685.57 246.961 685.019 245.438 684.462L244.605 686.738C246.133 687.297 247.659 687.849 249.183 688.397ZM240.018 685.047L240.863 682.775C239.347 682.212 237.83 681.643 236.311 681.069L235.454 683.336C236.977 683.912 238.498 684.482 240.018 685.047ZM230.933 681.614L231.802 679.351C230.298 678.774 228.792 678.191 227.285 677.603L226.404 679.861C227.915 680.45 229.425 681.035 230.933 681.614ZM221.865 678.077L222.758 675.823C221.248 675.225 219.736 674.622 218.223 674.013L217.319 676.262C218.836 676.872 220.351 677.477 221.865 678.077ZM212.826 674.441L213.743 672.197C212.254 671.589 210.763 670.976 209.272 670.359L208.345 672.598C209.84 673.217 211.334 673.832 212.826 674.441ZM203.856 670.725L204.795 668.49C203.301 667.863 201.806 667.23 200.31 666.592L199.36 668.822C200.86 669.461 202.358 670.095 203.856 670.725ZM194.864 666.892L195.826 664.667C194.353 664.031 192.878 663.389 191.403 662.743L190.43 664.963C191.909 665.611 193.387 666.254 194.864 666.892ZM185.991 663.005L186.975 660.789C185.498 660.134 184.02 659.473 182.541 658.808L181.547 661.018C183.029 661.685 184.511 662.347 185.991 663.005ZM177.097 659.002L178.103 656.797C176.629 656.125 175.155 655.449 173.68 654.768L172.664 656.968C174.143 657.651 175.62 658.329 177.097 659.002ZM168.274 654.928C166.811 654.243 165.346 653.554 163.881 652.86L164.918 650.67C166.38 651.362 167.841 652.049 169.301 652.732L168.274 654.928ZM159.484 650.765C158.017 650.062 156.55 649.354 155.083 648.642L156.142 646.461C157.605 647.172 159.069 647.878 160.532 648.579L159.484 650.765ZM150.709 646.506C149.261 645.795 147.814 645.079 146.366 644.359L147.445 642.189C148.889 642.907 150.334 643.621 151.777 644.33L150.709 646.506ZM142.021 642.186L143.11 640.021C141.665 639.294 140.219 638.562 138.773 637.826L137.673 639.987C139.123 640.724 140.572 641.457 142.021 642.186ZM133.324 637.76L134.434 635.605C132.998 634.866 131.561 634.122 130.125 633.374L129.005 635.524C130.445 636.274 131.885 637.019 133.324 637.76ZM124.712 633.275L125.841 631.131C124.413 630.379 122.985 629.622 121.557 628.862L120.418 631.001C121.849 631.764 123.281 632.522 124.712 633.275ZM116.122 628.701L117.272 626.567C115.843 625.798 114.415 625.024 112.986 624.246L111.827 626.375C113.259 627.155 114.691 627.93 116.122 628.701ZM107.561 624.04L108.73 621.916C107.319 621.14 105.908 620.359 104.498 619.575L103.319 621.693C104.733 622.479 106.147 623.262 107.561 624.04ZM99.0782 619.321L100.266 617.208C98.8557 616.415 97.4453 615.618 96.0351 614.816L94.8375 616.923C96.251 617.727 97.6646 618.526 99.0782 619.321Z" fill="#FFB300"/>
<path d="M329.429 663.777C329.627 665.801 329.92 668.091 330.352 670.482C331.053 674.369 332.125 678.536 333.763 682.272C335.399 686.006 337.612 689.341 340.616 691.523C343.621 693.706 347.476 694.782 351.532 695.184C355.592 695.586 359.887 695.317 363.8 694.783C366.207 694.455 368.474 694.025 370.46 693.589C368.597 694.403 366.51 695.39 364.37 696.539C360.891 698.408 357.259 700.714 354.211 703.426C351.166 706.135 348.679 709.271 347.531 712.803C346.384 716.335 346.552 720.333 347.423 724.315C348.295 728.301 349.877 732.302 351.594 735.858C352.65 738.047 353.759 740.071 354.788 741.825C353.438 740.304 351.855 738.624 350.101 736.943C347.249 734.212 343.933 731.47 340.412 729.409C336.894 727.35 333.142 725.955 329.429 725.955C325.715 725.955 321.964 727.35 318.446 729.409C314.925 731.47 311.609 734.212 308.757 736.943C307.002 738.624 305.42 740.304 304.069 741.825C305.098 740.071 306.209 738.047 307.265 735.858C308.981 732.302 310.564 728.301 311.436 724.315C312.307 720.333 312.475 716.335 311.327 712.803C310.18 709.271 307.693 706.135 304.647 703.426C301.599 700.714 297.967 698.408 294.488 696.539C292.348 695.389 290.261 694.403 288.397 693.589C290.384 694.025 292.651 694.455 295.059 694.783C298.972 695.317 303.266 695.586 307.326 695.184C311.382 694.782 315.237 693.706 318.241 691.523C321.246 689.341 323.46 686.006 325.096 682.272C326.733 678.536 327.805 674.369 328.507 670.482C328.939 668.091 329.23 665.801 329.429 663.777Z" fill="#FEF1C0" stroke="#FFB300" stroke-width="0.833881"/>
<circle cx="42" cy="196" r="16" fill="#FEF1C0" stroke="#141414" stroke-dasharray="0.91 0.91"/>
<path d="M52.1751 196C52.1751 201.619 47.6196 206.175 42.0001 206.175C36.3807 206.175 31.8252 201.619 31.8252 196" stroke="#141414" stroke-dasharray="0.91 0.91"/>
<path d="M38.9658 194.708C38.9658 192.375 37.8444 190.483 36.4612 190.483C35.0779 190.483 33.9565 192.375 33.9565 194.708" stroke="#141414" stroke-dasharray="0.91 0.91"/>
<path d="M49.4673 194.708C49.4673 192.375 48.3459 190.483 46.9626 190.483C45.5794 190.483 44.458 192.375 44.458 194.708" stroke="#141414" stroke-dasharray="0.91 0.91"/>
<path d="M48.5346 203.571L50.1446 205.181C51.187 206.223 52.8772 206.223 53.9197 205.181C54.9622 204.139 54.9622 202.448 53.9197 201.406L52.3097 199.796L51.686 198.73" stroke="#141414" stroke-dasharray="0.91 0.91"/>
</g>
<defs>
<clipPath id="clip0_238_8259">
<rect width="393" height="852" fill="white"/>
</clipPath>
</defs>
</svg>
